# xmcd
#
# Track frame offsets: 
#        150
#        17152
#        32607
#        50478
#        64437
#        79237
#        96456
#        109340
#        124914
#        138282
#        154748
#        178783
#        196086
#        214834
#        227127
#        244088
#        257073
#
# Disc length: 3686 seconds
#
# Revision: 0
# Processed by: cddbd v1.5.2PL0 Copyright (c) Steve Scherf et al.
# Submitted via: ExactAudioCopy v0.99pb4
#
DISCID=f60e6411
DTITLE=Paul Westerberg - A Lot of Songs- Not for Sale disc 1
DYEAR=1996
DGENRE=Ambient
TTITLE0=Waiting for Somebody
TTITLE1=World Class Fad
TTITLE2=Valentine
TTITLE3=Once Around the Weekend
TTITLE4=Mannequin Shop
TTITLE5=These Are the Days
TTITLE6=Kiss Me on the Bus
TTITLE7=I Will Dare
TTITLE8=Stain Yer Blood
TTITLE9=Ain't Got Me
TTITLE10=Century
TTITLE11=They're Blind
TTITLE12=Achin' to Be
TTITLE13=MamaDaddyDid
TTITLE14=Black Eyed Susan
TTITLE15=Nobody
TTITLE16=Here Comes a Regular
EXTD=
EXTT0=
EXTT1=
EXTT2=
EXTT3=
EXTT4=
EXTT5=
EXTT6=
EXTT7=
EXTT8=
EXTT9=
EXTT10=
EXTT11=
EXTT12=
EXTT13=
EXTT14=
EXTT15=
EXTT16=
PLAYORDER=
